<svg version="1.1" xmlns="http://www.w3.org/2000/svg" xmlns:xlink="http://www.w3.org/1999/xlink" width="786" height="341.87064677583203"><defs/><g transform="translate(0,0)"><g><rect fill="#FFFFFF" stroke="none" x="0" y="0" width="786" height="341.87064677583203"/></g><g transform="translate(0,0) matrix(1,0,0,1,420,131.87064677583203)"><g><g transform="translate(0,0) scale(1.7,1.9)"><g><path fill="#DAD2CC" stroke="none" d="M 0 0 L 100 0 Q 100 0 100 0 L 100 100 Q 100 100 100 100 L 0 100 Q 0 100 0 100 L 0 0 Q 0 0 0 0 Z"/><g transform="scale(0.5882352941176471,0.5263157894736842)"><path fill="none" stroke="none" d="M 0 0 L 170 0 Q 170 0 170 0 L 170 190 Q 170 190 170 190 L 0 190 Q 0 190 0 190 L 0 0 Q 0 0 0 0 Z"/><path fill="none" stroke="#422000" d="M 0 0 M 0 0 L 170 0 Q 170 0 170 0 L 170 190 Q 170 190 170 190 L 0 190 Q 0 190 0 190 L 0 0 Q 0 0 0 0 Z" stroke-miterlimit="10" stroke-width="2"/></g></g></g></g></g><g transform="translate(0,0) matrix(1,0,0,1,260,50)"><g><g transform="translate(0,0) scale(1,0.4)"><g><path fill="#DAD2CC" stroke="none" d="M 0 0 L 100 0 Q 100 0 100 0 L 100 100 Q 100 100 100 100 L 0 100 Q 0 100 0 100 L 0 0 Q 0 0 0 0 Z"/><g transform="scale(1,2.5)"><path fill="none" stroke="none" d="M 0 0 L 100 0 Q 100 0 100 0 L 100 40 Q 100 40 100 40 L 0 40 Q 0 40 0 40 L 0 0 Q 0 0 0 0 Z"/><path fill="none" stroke="#422000" d="M 0 0 M 0 0 L 100 0 Q 100 0 100 0 L 100 40 Q 100 40 100 40 L 0 40 Q 0 40 0 40 L 0 0 Q 0 0 0 0 Z" stroke-miterlimit="10" stroke-width="2"/></g></g></g></g></g><g transform="scale(1,1) matrix(1,0,0,1,262,50) translate(8,13)"><text fill="rgb(46, 22, 0)" stroke="none" font-family="Arial" font-size="12px" font-style="normal" font-weight="bold" text-decoration="none" x="8.6611328125" y="11">Dashboard</text></g><g transform="translate(0,0) matrix(1,0,0,1,80,20)"><g><g transform="translate(0,0) scale(1,0.4)"><g><path fill="#DAD2CC" stroke="none" d="M 0 0 L 100 0 Q 100 0 100 0 L 100 100 Q 100 100 100 100 L 0 100 Q 0 100 0 100 L 0 0 Q 0 0 0 0 Z"/><g transform="scale(1,2.5)"><path fill="none" stroke="none" d="M 0 0 L 100 0 Q 100 0 100 0 L 100 40 Q 100 40 100 40 L 0 40 Q 0 40 0 40 L 0 0 Q 0 0 0 0 Z"/><path fill="none" stroke="#422000" d="M 0 0 M 0 0 L 100 0 Q 100 0 100 0 L 100 40 Q 100 40 100 40 L 0 40 Q 0 40 0 40 L 0 0 Q 0 0 0 0 Z" stroke-miterlimit="10" stroke-width="2"/></g></g></g></g></g><g transform="scale(1,1) matrix(1,0,0,1,82,20) translate(8,13)"><text fill="rgb(46, 22, 0)" stroke="none" font-family="Arial" font-size="12px" font-style="normal" font-weight="bold" text-decoration="none" x="23.6640625" y="11">Video</text></g><g transform="translate(0,0) matrix(1,0,0,1,80,80)"><g><g transform="translate(0,0) scale(1,0.4)"><g><path fill="#DAD2CC" stroke="none" d="M 0 0 L 100 0 Q 100 0 100 0 L 100 100 Q 100 100 100 100 L 0 100 Q 0 100 0 100 L 0 0 Q 0 0 0 0 Z"/><g transform="scale(1,2.5)"><path fill="none" stroke="none" d="M 0 0 L 100 0 Q 100 0 100 0 L 100 40 Q 100 40 100 40 L 0 40 Q 0 40 0 40 L 0 0 Q 0 0 0 0 Z"/><path fill="none" stroke="#422000" d="M 0 0 M 0 0 L 100 0 Q 100 0 100 0 L 100 40 Q 100 40 100 40 L 0 40 Q 0 40 0 40 L 0 0 Q 0 0 0 0 Z" stroke-miterlimit="10" stroke-width="2"/></g></g></g></g></g><g transform="scale(1,1) matrix(1,0,0,1,82,80) translate(8,13)"><text fill="rgb(46, 22, 0)" stroke="none" font-family="Arial" font-size="12px" font-style="normal" font-weight="bold" text-decoration="none" x="20.9951171875" y="11">Charts</text></g><g transform="translate(0,0) matrix(1,0,0,1,80,160)"><g><g transform="translate(0,0) scale(1,0.4)"><g><path fill="#DAD2CC" stroke="none" d="M 0 0 L 100 0 Q 100 0 100 0 L 100 100 Q 100 100 100 100 L 0 100 Q 0 100 0 100 L 0 0 Q 0 0 0 0 Z"/><g transform="scale(1,2.5)"><path fill="none" stroke="none" d="M 0 0 L 100 0 Q 100 0 100 0 L 100 40 Q 100 40 100 40 L 0 40 Q 0 40 0 40 L 0 0 Q 0 0 0 0 Z"/><path fill="none" stroke="#422000" d="M 0 0 M 0 0 L 100 0 Q 100 0 100 0 L 100 40 Q 100 40 100 40 L 0 40 Q 0 40 0 40 L 0 0 Q 0 0 0 0 Z" stroke-miterlimit="10" stroke-width="2"/></g></g></g></g></g><g transform="scale(1,1) matrix(1,0,0,1,82,160) translate(8,13)"><text fill="rgb(46, 22, 0)" stroke="none" font-family="Arial" font-size="12px" font-style="normal" font-weight="bold" text-decoration="none" x="8.9892578125" y="11">Normalizer</text></g><g transform="translate(0,0) matrix(0.9659258262890683,0.2588190451025208,-0.2588190451025208,0.9659258262890683,193.4400447937985,33.870265609546294)"><g><g transform="translate(0,0) scale(0.5,0.2)"><g><g transform="scale(2,5)"><path fill="#CBDBE0" stroke="none" d="M 0 6 L 40 6 L 40 0 L 50 10 L 40 20 L 40 14 L 0 14 L 0 6 Z"/><path fill="none" stroke="#004C67" d="M 0 6 M 0 6 L 40 6 L 40 0 L 50 10 L 40 20 L 40 14 L 0 14 L 0 6 Z" stroke-miterlimit="10" stroke-width="2"/></g></g></g></g></g><g transform="translate(0,0) matrix(0.9659258262890683,-0.2588190451025208,0.2588190451025208,0.9659258262890683,188.26366389174808,86.81121786467234)"><g><g transform="translate(0,0) scale(0.5,0.2)"><g><g transform="scale(2,5)"><path fill="#CBDBE0" stroke="none" d="M 0 6 L 40 6 L 40 0 L 50 10 L 40 20 L 40 14 L 0 14 L 0 6 Z"/><path fill="none" stroke="#004C67" d="M 0 6 M 0 6 L 40 6 L 40 0 L 50 10 L 40 20 L 40 14 L 0 14 L 0 6 Z" stroke-miterlimit="10" stroke-width="2"/></g></g></g></g></g><g transform="translate(0,0) matrix(0.9659258262890683,0.2588190451025208,-0.2588190451025208,0.9659258262890683,373.4400447937985,83.87026560954628)"><g><g transform="translate(0,0) scale(0.4,0.2)"><g><g transform="scale(2.5,5)"><path fill="#CBDBE0" stroke="none" d="M 0 6 L 30 6 L 30 0 L 40 10 L 30 20 L 30 14 L 0 14 L 0 6 Z"/><path fill="none" stroke="#004C67" d="M 0 6 M 0 6 L 30 6 L 30 0 L 40 10 L 30 20 L 30 14 L 0 14 L 0 6 Z" stroke-miterlimit="10" stroke-width="2"/></g></g></g></g></g><g transform="translate(0,0) matrix(0.9659258262890683,-0.2588190451025208,0.2588190451025208,0.9659258262890683,191.15996865717727,178.8108366983866)"><g><g transform="translate(0,0) scale(2.2,0.2)"><g><g transform="scale(0.45454545454545453,5)"><path fill="#CBDBE0" stroke="none" d="M 0 6 L 210 6 L 210 0 L 220.00000000000003 10 L 210 20 L 210 14 L 0 14 L 0 6 Z"/><path fill="none" stroke="#004C67" d="M 0 6 M 0 6 L 210 6 L 210 0 L 220.00000000000003 10 L 210 20 L 210 14 L 0 14 L 0 6 Z" stroke-miterlimit="10" stroke-width="2"/></g></g></g></g></g><g transform="translate(0,0) matrix(1,0,0,1,430,140)"><g><g transform="translate(0,0) scale(1,0.4)"><g><path fill="#DAD2CC" stroke="none" d="M 0 0 L 100 0 Q 100 0 100 0 L 100 100 Q 100 100 100 100 L 0 100 Q 0 100 0 100 L 0 0 Q 0 0 0 0 Z"/><g transform="scale(1,2.5)"><path fill="none" stroke="none" d="M 0 0 L 100 0 Q 100 0 100 0 L 100 40 Q 100 40 100 40 L 0 40 Q 0 40 0 40 L 0 0 Q 0 0 0 0 Z"/><path fill="none" stroke="#422000" d="M 0 0 M 0 0 L 100 0 Q 100 0 100 0 L 100 40 Q 100 40 100 40 L 0 40 Q 0 40 0 40 L 0 0 Q 0 0 0 0 Z" stroke-miterlimit="10" stroke-width="2"/></g></g></g></g></g><g transform="scale(1,1) matrix(1,0,0,1,432,140) translate(8,13)"><text fill="rgb(46, 22, 0)" stroke="none" font-family="Arial" font-size="12px" font-style="normal" font-weight="bold" text-decoration="none" x="12.9853515625" y="11">Classifier</text></g><g transform="translate(0,0) matrix(1,0,0,1,430,80)"><g><g transform="translate(0,0) scale(1,0.4)"><g><path fill="#DAD2CC" stroke="none" d="M 0 0 L 100 0 Q 100 0 100 0 L 100 100 Q 100 100 100 100 L 0 100 Q 0 100 0 100 L 0 0 Q 0 0 0 0 Z"/><g transform="scale(1,2.5)"><path fill="none" stroke="none" d="M 0 0 L 100 0 Q 100 0 100 0 L 100 40 Q 100 40 100 40 L 0 40 Q 0 40 0 40 L 0 0 Q 0 0 0 0 Z"/><path fill="none" stroke="#422000" d="M 0 0 M 0 0 L 100 0 Q 100 0 100 0 L 100 40 Q 100 40 100 40 L 0 40 Q 0 40 0 40 L 0 0 Q 0 0 0 0 Z" stroke-miterlimit="10" stroke-width="2"/></g></g></g></g></g><g transform="scale(1,1) matrix(1,0,0,1,432,80) translate(8,13)"><text fill="rgb(46, 22, 0)" stroke="none" font-family="Arial" font-size="12px" font-style="normal" font-weight="bold" text-decoration="none" x="0.3232421875" y="11">Gps Predictor</text></g><g transform="translate(0,0) matrix(1,0,0,1,430,240)"><g><g transform="translate(0,0) scale(0.7,0.3)"><g><path fill="#DAD2CC" stroke="none" d="M 0 0 L 100 0 Q 100 0 100 0 L 100 100 Q 100 100 100 100 L 0 100 Q 0 100 0 100 L 0 0 Q 0 0 0 0 Z"/><g transform="scale(1.4285714285714286,3.3333333333333335)"><path fill="none" stroke="none" d="M 0 0 L 70 0 Q 70 0 70 0 L 70 30 Q 70 30 70 30 L 0 30 Q 0 30 0 30 L 0 0 Q 0 0 0 0 Z"/><path fill="none" stroke="#422000" d="M 0 0 M 0 0 L 70 0 Q 70 0 70 0 L 70 30 Q 70 30 70 30 L 0 30 Q 0 30 0 30 L 0 0 Q 0 0 0 0 Z" stroke-miterlimit="10" stroke-width="2"/></g></g></g></g></g><g transform="scale(1,1) matrix(1,0,0,1,431.4,240) translate(8,8)"><text fill="rgb(46, 22, 0)" stroke="none" font-family="Arial" font-size="12px" font-style="normal" font-weight="bold" text-decoration="none" x="12.269921875000009" y="11">Turn</text></g><g transform="translate(0,0) matrix(1,0,0,1,430,280)"><g><g transform="translate(0,0) scale(0.7,0.3)"><g><path fill="#DAD2CC" stroke="none" d="M 0 0 L 100 0 Q 100 0 100 0 L 100 100 Q 100 100 100 100 L 0 100 Q 0 100 0 100 L 0 0 Q 0 0 0 0 Z"/><g transform="scale(1.4285714285714286,3.3333333333333335)"><path fill="none" stroke="none" d="M 0 0 L 70 0 Q 70 0 70 0 L 70 30 Q 70 30 70 30 L 0 30 Q 0 30 0 30 L 0 0 Q 0 0 0 0 Z"/><path fill="none" stroke="#422000" d="M 0 0 M 0 0 L 70 0 Q 70 0 70 0 L 70 30 Q 70 30 70 30 L 0 30 Q 0 30 0 30 L 0 0 Q 0 0 0 0 Z" stroke-miterlimit="10" stroke-width="2"/></g></g></g></g></g><g transform="scale(1,1) matrix(1,0,0,1,431.4,280) translate(8,8)"><text fill="rgb(46, 22, 0)" stroke="none" font-family="Arial" font-size="12px" font-style="normal" font-weight="bold" text-decoration="none" x="5.9388671875000085" y="11">U-Turn</text></g><g transform="translate(0,0) matrix(1,0,0,1,430,200)"><g><g transform="translate(0,0) scale(0.7,0.3)"><g><path fill="#DAD2CC" stroke="none" d="M 0 0 L 100 0 Q 100 0 100 0 L 100 100 Q 100 100 100 100 L 0 100 Q 0 100 0 100 L 0 0 Q 0 0 0 0 Z"/><g transform="scale(1.4285714285714286,3.3333333333333335)"><path fill="none" stroke="none" d="M 0 0 L 70 0 Q 70 0 70 0 L 70 30 Q 70 30 70 30 L 0 30 Q 0 30 0 30 L 0 0 Q 0 0 0 0 Z"/><path fill="none" stroke="#422000" d="M 0 0 M 0 0 L 70 0 Q 70 0 70 0 L 70 30 Q 70 30 70 30 L 0 30 Q 0 30 0 30 L 0 0 Q 0 0 0 0 Z" stroke-miterlimit="10" stroke-width="2"/></g></g></g></g></g><g transform="scale(1,1) matrix(1,0,0,1,431.4,200) translate(8,5)"><text fill="rgb(46, 22, 0)" stroke="none" font-family="Arial" font-size="9px" font-style="normal" font-weight="bold" text-decoration="none" x="15.099267578125009" y="8">Line </text><text fill="rgb(46, 22, 0)" stroke="none" font-family="Arial" font-size="9px" font-style="normal" font-weight="bold" text-decoration="none" x="9.098535156250009" y="18">Change</text></g><g transform="translate(0,0) matrix(1,0,0,1,510,200)"><g><g transform="translate(0,0) scale(0.7,0.3)"><g><path fill="#DAD2CC" stroke="none" d="M 0 0 L 100 0 Q 100 0 100 0 L 100 100 Q 100 100 100 100 L 0 100 Q 0 100 0 100 L 0 0 Q 0 0 0 0 Z"/><g transform="scale(1.4285714285714286,3.3333333333333335)"><path fill="none" stroke="none" d="M 0 0 L 70 0 Q 70 0 70 0 L 70 30 Q 70 30 70 30 L 0 30 Q 0 30 0 30 L 0 0 Q 0 0 0 0 Z"/><path fill="none" stroke="#422000" d="M 0 0 M 0 0 L 70 0 Q 70 0 70 0 L 70 30 Q 70 30 70 30 L 0 30 Q 0 30 0 30 L 0 0 Q 0 0 0 0 Z" stroke-miterlimit="10" stroke-width="2"/></g></g></g></g></g><g transform="scale(1,1) matrix(1,0,0,1,511.4,200) translate(8,5)"><text fill="rgb(46, 22, 0)" stroke="none" font-family="Arial" font-size="9px" font-style="normal" font-weight="bold" text-decoration="none" x="5.3412109375000085" y="8">Obstacle </text><text fill="rgb(46, 22, 0)" stroke="none" font-family="Arial" font-size="9px" font-style="normal" font-weight="bold" text-decoration="none" x="2.8429199218750085" y="18">Avoidance</text></g><g transform="translate(0,0) matrix(1,0,0,1,510,240)"><g><g transform="translate(0,0) scale(0.7,0.3)"><g><path fill="#DAD2CC" stroke="none" d="M 0 0 L 100 0 Q 100 0 100 0 L 100 100 Q 100 100 100 100 L 0 100 Q 0 100 0 100 L 0 0 Q 0 0 0 0 Z"/><g transform="scale(1.4285714285714286,3.3333333333333335)"><path fill="none" stroke="none" d="M 0 0 L 70 0 Q 70 0 70 0 L 70 30 Q 70 30 70 30 L 0 30 Q 0 30 0 30 L 0 0 Q 0 0 0 0 Z"/><path fill="none" stroke="#422000" d="M 0 0 M 0 0 L 70 0 Q 70 0 70 0 L 70 30 Q 70 30 70 30 L 0 30 Q 0 30 0 30 L 0 0 Q 0 0 0 0 Z" stroke-miterlimit="10" stroke-width="2"/></g></g></g></g></g><g transform="scale(1,1) matrix(1,0,0,1,511.4,240) translate(8,9)"><text fill="rgb(46, 22, 0)" stroke="none" font-family="Arial" font-size="11px" font-style="normal" font-weight="bold" text-decoration="none" x="2.0558105468750085" y="10">Overtake</text></g><g transform="translate(0,0) matrix(1,0,0,1,550,90)"><g><g transform="translate(0,0) scale(0.9,0.2)"><g><g transform="scale(1.1111111111111112,5)"><path fill="#CBDBE0" stroke="none" d="M 0 6 L 80 6 L 80 0 L 90 10 L 80 20 L 80 14 L 0 14 L 0 6 Z"/><path fill="none" stroke="#004C67" d="M 0 6 M 0 6 L 80 6 L 80 0 L 90 10 L 80 20 L 80 14 L 0 14 L 0 6 Z" stroke-miterlimit="10" stroke-width="2"/></g></g></g></g></g><g transform="translate(0,0) matrix(1,0,0,1,430,20)"><g><g transform="translate(0,0) scale(1,0.4)"><g><path fill="#DAD2CC" stroke="none" d="M 0 0 L 100 0 Q 100 0 100 0 L 100 100 Q 100 100 100 100 L 0 100 Q 0 100 0 100 L 0 0 Q 0 0 0 0 Z"/><g transform="scale(1,2.5)"><path fill="none" stroke="none" d="M 0 0 L 100 0 Q 100 0 100 0 L 100 40 Q 100 40 100 40 L 0 40 Q 0 40 0 40 L 0 0 Q 0 0 0 0 Z"/><path fill="none" stroke="#422000" d="M 0 0 M 0 0 L 100 0 Q 100 0 100 0 L 100 40 Q 100 40 100 40 L 0 40 Q 0 40 0 40 L 0 0 Q 0 0 0 0 Z" stroke-miterlimit="10" stroke-width="2"/></g></g></g></g></g><g transform="scale(1,1) matrix(1,0,0,1,432,20) translate(8,13)"><text fill="rgb(46, 22, 0)" stroke="none" font-family="Arial" font-size="12px" font-style="normal" font-weight="bold" text-decoration="none" x="5.658203125" y="11">Your ideas?</text></g><g transform="translate(0,0) matrix(1,0,0,1,660,80)"><g><g transform="translate(0,0) scale(1,0.4)"><g><path fill="#DAD2CC" stroke="none" d="M 0 0 L 100 0 Q 100 0 100 0 L 100 100 Q 100 100 100 100 L 0 100 Q 0 100 0 100 L 0 0 Q 0 0 0 0 Z"/><g transform="scale(1,2.5)"><path fill="none" stroke="none" d="M 0 0 L 100 0 Q 100 0 100 0 L 100 40 Q 100 40 100 40 L 0 40 Q 0 40 0 40 L 0 0 Q 0 0 0 0 Z"/><path fill="none" stroke="#422000" d="M 0 0 M 0 0 L 100 0 Q 100 0 100 0 L 100 40 Q 100 40 100 40 L 0 40 Q 0 40 0 40 L 0 0 Q 0 0 0 0 Z" stroke-miterlimit="10" stroke-width="2"/></g></g></g></g></g><g transform="scale(1,1) matrix(1,0,0,1,662,80) translate(8,13)"><text fill="rgb(46, 22, 0)" stroke="none" font-family="Arial" font-size="12px" font-style="normal" font-weight="bold" text-decoration="none" x="8.3359375" y="11">Production</text></g></g></svg>